<svg xmlns="http://www.w3.org/2000/svg" xmlns:xlink="http://www.w3.org/1999/xlink" width="40" zoomAndPan="magnify" viewBox="0 0 30 37.92" height="40" preserveAspectRatio="xMidYMid meet" version="1.0"><defs><clipPath id="fd7d72eb8a"><path d="M 1.527344 2.992188 L 28.472656 2.992188 L 28.472656 26.941406 L 1.527344 26.941406 Z M 1.527344 2.992188 " clip-rule="nonzero"/></clipPath></defs><g clip-path="url(#fd7d72eb8a)"><path fill="#000000" d="M 28.460938 14.945312 C 28.460938 15.785156 27.761719 16.445312 26.964844 16.445312 L 25.46875 16.445312 L 25.5 23.941406 C 25.5 24.066406 25.492188 24.191406 25.476562 24.320312 L 25.476562 25.078125 C 25.476562 26.109375 24.640625 26.949219 23.605469 26.949219 L 22.859375 26.949219 C 22.808594 26.949219 22.753906 26.949219 22.703125 26.941406 C 22.636719 26.949219 22.574219 26.949219 22.507812 26.949219 L 20.988281 26.941406 L 19.863281 26.941406 C 18.832031 26.941406 17.992188 26.105469 17.992188 25.070312 L 17.992188 20.957031 C 17.992188 20.128906 17.324219 19.457031 16.496094 19.457031 L 13.503906 19.457031 C 12.675781 19.457031 12.007812 20.128906 12.007812 20.957031 L 12.007812 25.070312 C 12.007812 26.105469 11.167969 26.941406 10.136719 26.941406 L 7.519531 26.941406 C 7.449219 26.941406 7.378906 26.9375 7.308594 26.933594 C 7.253906 26.9375 7.199219 26.941406 7.140625 26.941406 L 6.394531 26.941406 C 5.359375 26.941406 4.523438 26.105469 4.523438 25.070312 L 4.523438 19.832031 C 4.523438 19.792969 4.523438 19.746094 4.527344 19.703125 L 4.527344 16.441406 L 3.03125 16.441406 C 2.1875 16.441406 1.53125 15.785156 1.53125 14.941406 C 1.53125 14.519531 1.671875 14.144531 2 13.816406 L 13.988281 3.367188 C 14.316406 3.039062 14.691406 2.992188 15.019531 2.992188 C 15.347656 2.992188 15.71875 3.085938 16 3.320312 L 27.949219 13.824219 C 28.320312 14.148438 28.507812 14.523438 28.460938 14.945312 Z M 28.460938 14.945312 " fill-opacity="1" fill-rule="nonzero"/></g></svg>