<svg xmlns="http://www.w3.org/2000/svg" xmlns:xlink="http://www.w3.org/1999/xlink" width="40" zoomAndPan="magnify" viewBox="0 0 30 37.92" height="40" preserveAspectRatio="xMidYMid meet" version="1.0"><defs><clipPath id="3db6c4c238"><path d="M 1.601562 1.570312 L 28.546875 1.570312 L 28.546875 28.515625 L 1.601562 28.515625 Z M 1.601562 1.570312 " clip-rule="nonzero"/></clipPath></defs><g clip-path="url(#3db6c4c238)"><path fill="#000000" d="M 15.917969 1.570312 L 20.125 1.570312 C 20.589844 1.570312 20.96875 1.949219 20.96875 2.414062 L 20.96875 5.78125 C 20.96875 6.246094 20.589844 6.625 20.125 6.625 L 15.917969 6.625 L 15.917969 8.308594 L 26.019531 8.308594 C 26.953125 8.308594 27.703125 9.058594 27.703125 9.992188 C 27.703125 10.921875 26.953125 11.675781 26.019531 11.675781 L 4.128906 11.675781 C 3.199219 11.675781 2.445312 10.921875 2.445312 9.992188 C 2.445312 9.058594 3.199219 8.308594 4.128906 8.308594 L 14.234375 8.308594 L 14.234375 2.414062 C 14.234375 1.949219 14.613281 1.570312 15.074219 1.570312 Z M 4.972656 13.359375 L 8.339844 13.359375 L 8.339844 23.464844 L 10.445312 23.464844 L 10.445312 13.359375 L 13.8125 13.359375 L 13.8125 23.464844 L 16.335938 23.464844 L 16.335938 13.359375 L 19.707031 13.359375 L 19.707031 23.464844 L 21.8125 23.464844 L 21.8125 13.359375 L 25.179688 13.359375 L 25.179688 23.6875 C 25.210938 23.703125 25.242188 23.726562 25.273438 23.746094 L 27.800781 25.429688 C 28.414062 25.839844 28.695312 26.609375 28.476562 27.320312 C 28.261719 28.03125 27.605469 28.515625 26.863281 28.515625 L 3.289062 28.515625 C 2.546875 28.515625 1.894531 28.03125 1.675781 27.320312 C 1.460938 26.609375 1.734375 25.839844 2.355469 25.429688 L 4.882812 23.746094 C 4.914062 23.726562 4.945312 23.710938 4.976562 23.6875 Z M 4.972656 13.359375 " fill-opacity="1" fill-rule="nonzero"/></g></svg>