<svg xmlns="http://www.w3.org/2000/svg" xmlns:xlink="http://www.w3.org/1999/xlink" width="40" zoomAndPan="magnify" viewBox="0 0 30 30.000001" height="40" preserveAspectRatio="xMidYMid meet" version="1.0"><defs><clipPath id="3ffa31088a"><path d="M 0.488281 2.140625 L 29.515625 2.140625 L 29.515625 6.953125 L 0.488281 6.953125 Z M 0.488281 2.140625 " clip-rule="nonzero"/></clipPath><clipPath id="620cf28924"><path d="M 0.488281 11.648438 L 29.515625 11.648438 L 29.515625 16.574219 L 0.488281 16.574219 Z M 0.488281 11.648438 " clip-rule="nonzero"/></clipPath><clipPath id="e272898599"><path d="M 0.488281 21.269531 L 29.515625 21.269531 L 29.515625 26.09375 L 0.488281 26.09375 Z M 0.488281 21.269531 " clip-rule="nonzero"/></clipPath></defs><g clip-path="url(#3ffa31088a)"><path fill="#1e1e1e" d="M 27.113281 6.933594 L 2.886719 6.933594 C 1.558594 6.933594 0.488281 5.859375 0.488281 4.535156 C 0.488281 3.214844 1.558594 2.140625 2.886719 2.140625 L 27.113281 2.140625 C 28.441406 2.140625 29.515625 3.214844 29.515625 4.535156 C 29.515625 5.859375 28.441406 6.933594 27.113281 6.933594 " fill-opacity="1" fill-rule="nonzero"/></g><g clip-path="url(#620cf28924)"><path fill="#1e1e1e" d="M 27.113281 16.515625 L 2.886719 16.515625 C 1.558594 16.515625 0.488281 15.441406 0.488281 14.121094 C 0.488281 12.796875 1.558594 11.722656 2.886719 11.722656 L 27.113281 11.722656 C 28.441406 11.722656 29.515625 12.796875 29.515625 14.121094 C 29.515625 15.441406 28.441406 16.515625 27.113281 16.515625 " fill-opacity="1" fill-rule="nonzero"/></g><g clip-path="url(#e272898599)"><path fill="#1e1e1e" d="M 27.113281 26.097656 L 2.886719 26.097656 C 1.558594 26.097656 0.488281 25.023438 0.488281 23.703125 C 0.488281 22.378906 1.558594 21.304688 2.886719 21.304688 L 27.113281 21.304688 C 28.441406 21.304688 29.515625 22.378906 29.515625 23.703125 C 29.515625 25.023438 28.441406 26.097656 27.113281 26.097656 " fill-opacity="1" fill-rule="nonzero"/></g></svg>