<svg xmlns="http://www.w3.org/2000/svg" xmlns:xlink="http://www.w3.org/1999/xlink" width="40" zoomAndPan="magnify" viewBox="0 0 30 37.92" height="40" preserveAspectRatio="xMidYMid meet" version="1.0"><defs><clipPath id="633a7f6cee"><path d="M 1.640625 1.609375 L 28.582031 1.609375 L 28.582031 27 L 1.640625 27 Z M 1.640625 1.609375 " clip-rule="nonzero"/></clipPath></defs><g clip-path="url(#633a7f6cee)"><path fill="#000000" d="M 11.324219 4.136719 L 18.902344 4.136719 C 19.132812 4.136719 19.320312 4.324219 19.320312 4.554688 L 19.320312 6.660156 L 10.902344 6.660156 L 10.902344 4.554688 C 10.902344 4.324219 11.09375 4.136719 11.324219 4.136719 Z M 8.375 4.554688 L 8.375 6.660156 L 5.007812 6.660156 C 3.152344 6.660156 1.640625 8.171875 1.640625 10.027344 L 1.640625 15.082031 L 28.582031 15.082031 L 28.582031 10.027344 C 28.582031 8.171875 27.074219 6.660156 25.214844 6.660156 L 21.847656 6.660156 L 21.847656 4.554688 C 21.847656 2.929688 20.527344 1.609375 18.902344 1.609375 L 11.324219 1.609375 C 9.699219 1.609375 8.375 2.929688 8.375 4.554688 Z M 28.582031 16.765625 L 18.480469 16.765625 L 18.480469 18.449219 C 18.480469 19.378906 17.726562 20.132812 16.796875 20.132812 L 13.429688 20.132812 C 12.496094 20.132812 11.746094 19.378906 11.746094 18.449219 L 11.746094 16.765625 L 1.640625 16.765625 L 1.640625 23.5 C 1.640625 25.359375 3.152344 26.867188 5.007812 26.867188 L 25.214844 26.867188 C 27.074219 26.867188 28.582031 25.359375 28.582031 23.5 Z M 28.582031 16.765625 " fill-opacity="1" fill-rule="nonzero"/></g></svg>