<svg xmlns="http://www.w3.org/2000/svg" xmlns:xlink="http://www.w3.org/1999/xlink" width="40" zoomAndPan="magnify" viewBox="0 0 30 30.000001" height="40" preserveAspectRatio="xMidYMid meet" version="1.0"><defs><clipPath id="8f5aa78392"><path d="M 2.660156 4 L 27.339844 4 L 27.339844 24 L 2.660156 24 Z M 2.660156 4 " clip-rule="nonzero"/></clipPath></defs><g clip-path="url(#8f5aa78392)"><path fill="#000000" d="M 11.574219 6.304688 C 11.574219 5.179688 12.492188 4.265625 13.628906 4.265625 L 16.371094 4.265625 C 17.507812 4.265625 18.425781 5.179688 18.425781 6.304688 L 18.425781 9.027344 C 18.425781 10.152344 17.507812 11.070312 16.371094 11.070312 L 16.027344 11.070312 L 16.027344 12.769531 L 22.539062 12.769531 C 23.863281 12.769531 24.9375 13.835938 24.9375 15.152344 L 24.9375 16.511719 L 25.28125 16.511719 C 26.417969 16.511719 27.335938 17.425781 27.335938 18.554688 L 27.335938 21.273438 C 27.335938 22.402344 26.417969 23.316406 25.28125 23.316406 L 22.539062 23.316406 C 21.402344 23.316406 20.484375 22.402344 20.484375 21.273438 L 20.484375 18.554688 C 20.484375 17.425781 21.402344 16.511719 22.539062 16.511719 L 22.882812 16.511719 L 22.882812 15.152344 C 22.882812 14.964844 22.726562 14.8125 22.539062 14.8125 L 16.027344 14.8125 L 16.027344 16.511719 L 16.371094 16.511719 C 17.507812 16.511719 18.425781 17.425781 18.425781 18.554688 L 18.425781 21.273438 C 18.425781 22.402344 17.507812 23.316406 16.371094 23.316406 L 13.628906 23.316406 C 12.492188 23.316406 11.574219 22.402344 11.574219 21.273438 L 11.574219 18.554688 C 11.574219 17.425781 12.492188 16.511719 13.628906 16.511719 L 13.972656 16.511719 L 13.972656 14.8125 L 7.460938 14.8125 C 7.273438 14.8125 7.117188 14.964844 7.117188 15.152344 L 7.117188 16.511719 L 7.460938 16.511719 C 8.597656 16.511719 9.515625 17.425781 9.515625 18.554688 L 9.515625 21.273438 C 9.515625 22.402344 8.597656 23.316406 7.460938 23.316406 L 4.71875 23.316406 C 3.582031 23.316406 2.664062 22.402344 2.664062 21.273438 L 2.664062 18.554688 C 2.664062 17.425781 3.582031 16.511719 4.71875 16.511719 L 5.0625 16.511719 L 5.0625 15.152344 C 5.0625 13.835938 6.136719 12.769531 7.460938 12.769531 L 13.972656 12.769531 L 13.972656 11.070312 L 13.628906 11.070312 C 12.492188 11.070312 11.574219 10.152344 11.574219 9.027344 Z M 11.574219 6.304688 " fill-opacity="1" fill-rule="nonzero"/></g></svg>