<svg xmlns="http://www.w3.org/2000/svg" xmlns:xlink="http://www.w3.org/1999/xlink" width="40" zoomAndPan="magnify" viewBox="0 0 30 37.92" height="40" preserveAspectRatio="xMidYMid meet" version="1.0"><defs><clipPath id="2b0c137ab6"><path d="M 1.339844 1.308594 L 29.03125 1.308594 L 29.03125 29 L 1.339844 29 Z M 1.339844 1.308594 " clip-rule="nonzero"/></clipPath></defs><g clip-path="url(#2b0c137ab6)"><path fill="#000000" d="M 14.328125 1.535156 C 14.855469 1.234375 15.511719 1.234375 16.046875 1.535156 L 25.339844 6.84375 L 25.570312 6.933594 L 25.570312 6.984375 L 28.164062 8.464844 C 28.84375 8.855469 29.179688 9.65625 28.980469 10.414062 C 28.777344 11.167969 28.09375 11.699219 27.308594 11.699219 L 3.070312 11.695312 C 2.289062 11.695312 1.601562 11.164062 1.402344 10.40625 C 1.199219 9.648438 1.535156 8.847656 2.21875 8.460938 L 4.804688 6.984375 L 4.804688 6.933594 L 5.039062 6.847656 Z M 4.804688 13.425781 L 8.265625 13.425781 L 8.265625 23.808594 L 10.425781 23.808594 L 10.425781 13.425781 L 13.890625 13.425781 L 13.890625 23.808594 L 16.484375 23.808594 L 16.484375 13.425781 L 19.945312 13.425781 L 19.945312 23.808594 L 22.109375 23.808594 L 22.109375 13.425781 L 25.570312 13.425781 L 25.570312 24.042969 C 25.605469 24.058594 25.636719 24.078125 25.667969 24.101562 L 28.265625 25.832031 C 28.898438 26.253906 29.183594 27.042969 28.960938 27.773438 C 28.742188 28.503906 28.066406 29 27.300781 29 L 3.070312 29 C 2.308594 29 1.640625 28.503906 1.417969 27.773438 C 1.195312 27.042969 1.476562 26.253906 2.113281 25.832031 L 4.710938 24.101562 C 4.742188 24.078125 4.777344 24.0625 4.808594 24.042969 Z M 4.804688 13.425781 " fill-opacity="1" fill-rule="nonzero"/></g></svg>