<svg xmlns="http://www.w3.org/2000/svg" xmlns:xlink="http://www.w3.org/1999/xlink" width="40" zoomAndPan="magnify" viewBox="0 0 30 37.92" height="40" preserveAspectRatio="xMidYMid meet" version="1.0"><defs><clipPath id="ecc8650895"><path d="M 1.789062 1.757812 L 27.984375 1.757812 L 27.984375 27.953125 L 1.789062 27.953125 Z M 1.789062 1.757812 " clip-rule="nonzero"/></clipPath></defs><g clip-path="url(#ecc8650895)"><path fill="#000000" d="M 15.703125 1.972656 C 15.199219 1.6875 14.582031 1.6875 14.074219 1.972656 L 2.613281 8.523438 C 2.109375 8.8125 1.789062 9.355469 1.789062 9.945312 L 1.789062 26.316406 C 1.789062 27.222656 2.523438 27.953125 3.425781 27.953125 C 4.332031 27.953125 5.066406 27.222656 5.066406 26.316406 L 5.066406 10.894531 L 14.886719 5.285156 L 24.710938 10.894531 L 24.710938 26.316406 C 24.710938 27.222656 25.441406 27.953125 26.347656 27.953125 C 27.253906 27.953125 27.984375 27.222656 27.984375 26.316406 L 27.984375 9.945312 C 27.984375 9.355469 27.667969 8.8125 27.160156 8.523438 Z M 14.886719 12.402344 C 15.160156 12.402344 15.421875 12.347656 15.671875 12.246094 C 15.921875 12.140625 16.144531 11.992188 16.335938 11.800781 C 16.527344 11.609375 16.675781 11.386719 16.777344 11.136719 C 16.882812 10.886719 16.933594 10.625 16.933594 10.355469 C 16.933594 10.082031 16.882812 9.820312 16.777344 9.570312 C 16.675781 9.320312 16.527344 9.097656 16.335938 8.90625 C 16.144531 8.714844 15.921875 8.566406 15.671875 8.464844 C 15.421875 8.359375 15.160156 8.308594 14.886719 8.308594 C 14.617188 8.308594 14.355469 8.359375 14.105469 8.464844 C 13.855469 8.566406 13.632812 8.714844 13.441406 8.90625 C 13.25 9.097656 13.101562 9.320312 12.996094 9.570312 C 12.894531 9.820312 12.839844 10.082031 12.839844 10.355469 C 12.839844 10.625 12.894531 10.886719 12.996094 11.136719 C 13.101562 11.386719 13.25 11.609375 13.441406 11.800781 C 13.632812 11.992188 13.855469 12.140625 14.105469 12.246094 C 14.355469 12.347656 14.617188 12.402344 14.886719 12.402344 Z M 14.476562 26.726562 L 14.476562 22.222656 L 15.296875 22.222656 L 15.296875 26.726562 C 15.296875 27.40625 15.84375 27.953125 16.523438 27.953125 C 17.207031 27.953125 17.753906 27.40625 17.753906 26.726562 L 17.753906 17.796875 L 19.128906 20.351562 C 19.453125 20.949219 20.191406 21.167969 20.792969 20.851562 C 21.390625 20.535156 21.609375 19.789062 21.292969 19.191406 L 19.355469 15.59375 C 18.570312 14.136719 17.046875 13.222656 15.390625 13.222656 L 14.390625 13.222656 C 12.734375 13.222656 11.214844 14.136719 10.425781 15.59375 L 8.488281 19.191406 C 8.164062 19.789062 8.390625 20.53125 8.988281 20.851562 C 9.585938 21.175781 10.328125 20.949219 10.652344 20.351562 L 12.023438 17.796875 L 12.023438 26.726562 C 12.023438 27.40625 12.570312 27.953125 13.25 27.953125 C 13.929688 27.953125 14.476562 27.40625 14.476562 26.726562 Z M 14.476562 26.726562 " fill-opacity="1" fill-rule="nonzero"/></g></svg>